<svg xmlns="http://www.w3.org/2000/svg" viewBox="0 0 512.17 447.53"><defs><style>.cls-1{fill:#444;}</style></defs><title>Arrow</title><g id="Layer_2" data-name="Layer 2"><g id="Capa_1" data-name="Capa 1"><path class="cls-1" d="M509,215.89,295.53,3.09A10.78,10.78,0,0,0,283.9.79a10.65,10.65,0,0,0-6.57,9.85V128H10.67A10.67,10.67,0,0,0,0,138.64V309.31A10.67,10.67,0,0,0,10.67,320H277.33V436.86a10.71,10.71,0,0,0,6.6,9.86,10.55,10.55,0,0,0,4.07.81,10.74,10.74,0,0,0,7.55-3.12L509.06,231a10.7,10.7,0,0,0,0-15.11Z"/></g></g></svg>