<svg xmlns="http://www.w3.org/2000/svg" viewBox="0 0 218.56 218.56"><defs><style>.cls-1{fill:#000;}</style></defs><title>Vegetarian</title><g id="Layer_2" data-name="Layer 2"><g id="Layer_1-2" data-name="Layer 1"><path class="cls-1" d="M162.83,87.72l-11.63.9-14.3.79h-.8l-4,3.88h0l29.8-2A29.8,29.8,0,0,1,160.84,98c-1.19,5.67-2.58,11.43-3.77,17.09a1.4,1.4,0,0,1-1.48,1.31l-.11,0-28.91,2-19.87,1.29a5.56,5.56,0,0,0-2.09.9c-1.19,1-2.18,2.18-3.38,3.18h0L155.48,120a9.16,9.16,0,0,1-1.1,3.28,95.21,95.21,0,0,1-8.14,17.38,1.8,1.8,0,0,1-1.79,1l-59.61-1.1a2.23,2.23,0,0,0-1.59.6l-3.38,3.28,62.79,1.29-1.19,1.59a42.11,42.11,0,0,1-24.54,15.6,48.13,48.13,0,0,1-23.74-1.29A64.56,64.56,0,0,1,83,159a67.79,67.79,0,0,1-7.75-4.67l-2.28-1.49L63,162.73a5.29,5.29,0,0,1-4.48,1.79A4.89,4.89,0,0,1,54.24,161a4.79,4.79,0,0,1,1.19-5.27l12.12-12.12,66.17-66.06L156.37,55a2.08,2.08,0,0,1,1.49-.7h6.66a208,208,0,0,1-1.59,33.38M68.85,78.48l3.27-2.68V77c0,18.08.7,36.07,1.1,54.05a3.07,3.07,0,0,1-.9,2.18l-7.94,7.85-1.2,1.09c-1.69-3.87-3.57-7.45-5.06-11.22a52.82,52.82,0,0,1-4.18-19.87A41.55,41.55,0,0,1,68.85,78.48m8.44-6.16a104.37,104.37,0,0,1,19.87-9H98a58.6,58.6,0,0,1-.79,11.83c0,5.56-.7,11-1.09,16.59S95,104,95,110.27a1.6,1.6,0,0,1,0,1.1L78.68,127.66h-.79v-9.94c0-14.8,0-29.8-.8-44.3a2,2,0,0,1,1.09-1.89M99.54,99.35c0-6.76.9-13.42,1.39-19.87s.7-10.83,1-16.3a1.29,1.29,0,0,1,1-1.19,176.21,176.21,0,0,1,23.65-4.87h0V65c0,4.47-.7,8.94-.9,13.51A5.26,5.26,0,0,1,124.18,82C116,89.91,108,98.05,99.94,106.1l-.79.7a36.2,36.2,0,0,1,.49-7.36m31.6-43.21,19.86-1.49L129.75,75.4c0-6.35.89-12.81,1.39-19.87M109.28,0A109.28,109.28,0,1,0,218.56,109.28,109.28,109.28,0,0,0,109.28,0"/></g></g></svg>