<svg xmlns="http://www.w3.org/2000/svg" viewBox="0 0 300 252.99"><defs><style>.cls-1,.cls-2{fill:#ff5c00;}.cls-2{font-size:91.61px;font-family:OpenSans-Extrabold, Open Sans;font-weight:800;}</style></defs><title>Icon-2</title><g id="Layer_2" data-name="Layer 2"><g id="Ñëîé_1" data-name="Ñëîé 1"><rect class="cls-1" x="31.95" y="138.75" width="38.32" height="32.64" rx="6.98"/><rect class="cls-1" x="31.95" y="190.23" width="38.32" height="32.64" rx="6.98"/><rect class="cls-1" x="87.72" y="190.23" width="38.32" height="32.64" rx="6.98"/><path class="cls-1" d="M200.83,202.35v34.48a3.27,3.27,0,0,1-3.23,3.23H16.16a3.27,3.27,0,0,1-3.23-3.23v-114a4.4,4.4,0,0,1,4.4-4.4H100.6a110.93,110.93,0,0,1-1.9-43.28H67V73.53A17.59,17.59,0,0,0,49.47,56,17.83,17.83,0,0,0,31.69,73.77v1.11a.24.24,0,0,1-.24.24H16.16A16.2,16.2,0,0,0,0,91.28V236.83A16.2,16.2,0,0,0,16.16,253H197.6a16.2,16.2,0,0,0,16.16-16.16V202.44c-1.91.1-3.84.15-5.78.15Q204.38,202.59,200.83,202.35ZM38.15,72.15c0-5.34,5.73-9.7,11.08-9.7h.24A11.12,11.12,0,0,1,60.55,73.53v12.2A11.12,11.12,0,0,1,49.47,96.81h-.24c-5.35,0-11.08-4.36-11.08-9.7Z"/><path class="cls-1" d="M94.7,138.75a7,7,0,0,0-7,7v18.69a7,7,0,0,0,7,7h24.36a7,7,0,0,0,6.8-5.41,110.83,110.83,0,0,1-18.08-27.23Z"/><path class="cls-1" d="M174.83,222.87a7,7,0,0,0,7-7V199.46a110,110,0,0,1-24.59-9.23h-6.75a7,7,0,0,0-7,7V215.9a7,7,0,0,0,7,7Z"/><path class="cls-1" d="M208,0a92,92,0,1,0,92,92A92.12,92.12,0,0,0,208,0Zm0,165.8A73.78,73.78,0,1,1,281.76,92,73.87,73.87,0,0,1,208,165.8Z"/><text class="cls-2" transform="translate(156.55 125.37)">30</text></g></g></svg>