<svg xmlns="http://www.w3.org/2000/svg" viewBox="0 0 128 108.98"><defs><style>.cls-1{fill:#64ba49;}</style></defs><title>Icon-1</title><g id="Layer_2" data-name="Layer 2"><g id="Layer_1-2" data-name="Layer 1"><path class="cls-1" d="M24.38,10.73C11.85,16.64,1.26,21.65.81,21.88.21,22.2,0,22.48,0,23c0,.71-.15.55,9.45,9.81L14,37.16l-1.2.75c-1.12.7-1.45,1.19-5,7.44C5.73,49,4,52.23,3.89,52.46a1.08,1.08,0,0,0,.17.84c.17.22,10.4,6.16,22.75,13.2,17.6,10,22.56,12.75,23,12.62.71-.19,10-12.36,10.12-13.24.06-.49-.13-.75-.88-1.23-.52-.34-10.49-5.86-22.19-12.29S15.59,40.66,15.55,40.62,25.3,35.35,37.3,29,59.83,17,60.69,16.55l1.56-.87v30.5l-5.94,3.47c-5.07,3-6,3.55-6,4.1a1.23,1.23,0,0,0,.38,1C51.45,55.44,63.55,62,64,62s12.55-6.54,13.32-7.21a1.23,1.23,0,0,0,.38-1c-.06-.55-.94-1.14-6-4.1l-5.94-3.47V15.68l1.56.87C68.17,17,78.7,22.62,90.7,29s21.79,11.61,21.75,11.64-9.63,5.31-21.33,11.74-21.67,12-22.2,12.29c-.75.48-.93.74-.87,1.23.11.88,9.41,13.05,10.12,13.24.46.13,5.42-2.59,23-12.62,12.35-7,22.58-13,22.75-13.2a1.08,1.08,0,0,0,.17-.84c-.07-.23-1.85-3.45-3.94-7.13-3.54-6.25-3.87-6.75-5-7.43L114,37.16l4.55-4.39c9.65-9.3,9.45-9.1,9.45-9.81s-.23-.78-2-1.6C105.3,11.48,80.64,0,80.2,0S77.47,1.92,73,5.88c-4.08,3.62-6.77,5.84-7,5.77s-.74-.26-1.19-.44a1.72,1.72,0,0,0-1.62,0c-.45.18-1,.37-1.19.44S59.07,9.5,55,5.88C50.1,1.54,48.21,0,47.75,0S36.9,4.83,24.38,10.73Z"/><path class="cls-1" d="M13.26,65.22A61.75,61.75,0,0,0,13,73.46c0,7.7,0,7.75.57,8.37C14.33,82.66,60,109,60.62,109a1.25,1.25,0,0,0,.83-.3c.42-.42.42-34.22,0-34.65a1.39,1.39,0,0,0-.88-.3c-.62,0-1.28.78-6,7C51.92,84.26,51.1,85,50,84.65c-.32-.08-8.36-4.59-17.89-10C22.29,69,14.48,64.73,14.14,64.73a1.05,1.05,0,0,0-.88.49Z"/><path class="cls-1" d="M95.87,74.63c-9.5,5.44-17.5,9.94-17.82,10-1.15.3-2-.39-4.59-3.87-4.75-6.27-5.41-7-6-7a1.38,1.38,0,0,0-.87.3c-.43.43-.43,34.23,0,34.65a1.23,1.23,0,0,0,.82.3c.68,0,46.3-26.32,47.06-27.15.57-.62.57-.67.57-8.37a61.75,61.75,0,0,0-.26-8.24,1,1,0,0,0-.94-.47c-.41,0-7.4,3.86-17.93,9.88Z"/></g></g></svg>