<svg xmlns="http://www.w3.org/2000/svg" width="26.864" height="23.87" viewBox="0 0 26.864 23.87"><defs><style>.a{fill:#ff5c00;}</style></defs><g transform="translate(-339 -358)"><path class="a" d="M346.8,437.552a16.721,16.721,0,0,0,2.175-.139v-7.569a16.786,16.786,0,0,0-2.175-.139c-4.31,0-7.8,1.585-7.8,3.54v.768c0,1.955,3.494,3.54,7.8,3.54Zm0,0" transform="translate(0 -65.709)"/><path class="a" d="M346.8,515.67a16.721,16.721,0,0,0,2.175-.139v-2.218a16.74,16.74,0,0,1-2.175.14c-3.763,0-6.9-1.208-7.641-2.815a1.725,1.725,0,0,0-.164.725v.768c0,1.955,3.494,3.54,7.8,3.54Zm0,0" transform="translate(0 -139.874)"/><path class="a" d="M348.98,560.75v-.173a16.722,16.722,0,0,1-2.175.14c-3.763,0-6.9-1.208-7.641-2.815a1.727,1.727,0,0,0-.164.725v.767c0,1.955,3.494,3.54,7.8,3.54a16.611,16.611,0,0,0,2.467-.181,2.79,2.79,0,0,1-.291-1.237Zm0,0" transform="translate(0 -183.188)"/><path class="a" d="M481.4,358c-4.311,0-7.805,1.585-7.805,3.54v.768c0,1.955,3.495,3.54,7.805,3.54s7.8-1.585,7.8-3.54v-.768c0-1.955-3.495-3.54-7.8-3.54Zm0,0" transform="translate(-123.336)"/><path class="a" d="M481.4,441.749c-3.763,0-6.9-1.207-7.641-2.815a1.724,1.724,0,0,0-.164.725v.768c0,1.955,3.495,3.54,7.805,3.54s7.8-1.585,7.8-3.54v-.768a1.723,1.723,0,0,0-.164-.725c-.738,1.607-3.878,2.815-7.641,2.815Zm0,0" transform="translate(-123.336 -74.167)"/><path class="a" d="M481.4,489.015c-3.763,0-6.9-1.208-7.641-2.815a1.726,1.726,0,0,0-.164.725v.768c0,1.955,3.495,3.54,7.805,3.54s7.8-1.585,7.8-3.54v-.768a1.725,1.725,0,0,0-.164-.725c-.738,1.607-3.878,2.815-7.641,2.815Zm0,0" transform="translate(-123.336 -117.481)"/><path class="a" d="M481.4,538.831c-3.763,0-6.9-1.208-7.641-2.815a1.727,1.727,0,0,0-.164.725v.768c0,1.955,3.495,3.54,7.805,3.54s7.8-1.585,7.8-3.54v-.768a1.726,1.726,0,0,0-.164-.725c-.738,1.607-3.878,2.815-7.641,2.815Zm0,0" transform="translate(-123.336 -163.131)"/><path class="a" d="M481.4,586.1c-3.763,0-6.9-1.208-7.641-2.815a1.727,1.727,0,0,0-.164.725v.768c0,1.955,3.495,3.54,7.805,3.54s7.8-1.585,7.8-3.54v-.768a1.724,1.724,0,0,0-.164-.725c-.738,1.607-3.878,2.815-7.641,2.815Zm0,0" transform="translate(-123.336 -206.449)"/></g></svg>