<svg xmlns="http://www.w3.org/2000/svg" viewBox="0 0 273.01 276.48"><defs><style>.cls-1{fill:#000;}</style></defs><title>Lactose Free</title><g id="Layer_2" data-name="Layer 2"><g id="Layer_1-2" data-name="Layer 1"><path class="cls-1" d="M157.64,112.09,161.88,129h0V205c0,11.52-4.73,17.22-14.19,17.46H122.22a14.17,14.17,0,0,1-13.82-14V130.89h3a54.52,54.52,0,0,0,30.8-13m26.93,11c0-5.09-16-59.67-16-59.67a14.32,14.32,0,0,1,0-8l1-2.79,2.3-1.94a2.92,2.92,0,0,0,1.22-2.31,3.39,3.39,0,0,0-3.28-3.39H114.82a3.5,3.5,0,0,0-3.39,3.39A3.15,3.15,0,0,0,113,56.91l5.34,3.4-.73,6.3c0,1.1-14.43,50.21-16.49,62.83v82a18.43,18.43,0,0,0,16,17.47,127.74,127.74,0,0,0,17.7,1H143a27.27,27.27,0,0,0,20.13-6.43,26,26,0,0,0,5.7-12.13V129"/><path class="cls-1" d="M180.56,210a30.79,30.79,0,0,1-9.34,21.46,36.36,36.36,0,0,1-27.53,9.46h-8a128.16,128.16,0,0,1-19.28-1.09,28.73,28.73,0,0,1-24.86-27.16V133.32A45.71,45.71,0,0,1,93,122.4c2.91-13.94,7-27.77,11-41.11,1.33-4.49,2.67-8.85,3.88-13.22V66.25A13.48,13.48,0,0,1,101.6,55a13.83,13.83,0,0,1,13.71-13.7h39.54A13.82,13.82,0,0,1,168.55,55a13.35,13.35,0,0,1-5.09,10.31,4.77,4.77,0,0,0,0,2.06l1,3.88c2.67,10.19,12.85,43.91,14.55,50.21a59.89,59.89,0,0,1,1.7,12.13v76.65m6.43-91.32h0L182,100.82l62.83-41.24A133.61,133.61,0,0,0,22.41,207.66L83.05,167.4v20.74l-50.94,34a133.41,133.41,0,0,0,221.7-148Z"/></g></g></svg>