<svg xmlns="http://www.w3.org/2000/svg" viewBox="0 0 236.61 236.61"><defs><style>.cls-1{fill:#000;}</style></defs><title>Ebook</title><g id="Layer_2" data-name="Layer 2"><g id="Layer_1-2" data-name="Layer 1"><path class="cls-1" d="M118.31,0a118.31,118.31,0,1,0,118.3,118.31h0A118.31,118.31,0,0,0,118.31,0ZM39.49,166.5v-98a16.07,16.07,0,0,1,9.75,0v90.08a72.5,72.5,0,0,1,66.06,16.22A165,165,0,0,0,39.49,167Zm78.22,5.55a64.24,64.24,0,0,0-64.56-20.71V61.25a52.84,52.84,0,0,1,64.4,25.68Zm1.2-84.67a53,53,0,0,1,65.15-25.22v90.08A64.23,64.23,0,0,0,119.51,173Zm78.22,79.12A165.27,165.27,0,0,0,122.06,173a72.53,72.53,0,0,1,66.06-16.21V66.66a16.1,16.1,0,0,1,9.76,0Z"/></g></g></svg>