<svg xmlns="http://www.w3.org/2000/svg" viewBox="0 0 248 248"><defs><style>.cls-1{fill:#000;}</style></defs><title>Cellulose</title><g id="Layer_2" data-name="Layer 2"><g id="Layer_1-2" data-name="Layer 1"><path class="cls-1" d="M181.83,61.1a26.61,26.61,0,0,0-28.18-2.37,41.84,41.84,0,0,0-11.28,8.91L111.94,98.52l-4.62,4.63,38.32,38.32.79-.67,9.47-9.47,28.63-28.64a26.59,26.59,0,0,0,7.11-26.37A25.16,25.16,0,0,0,181.38,61.1"/><path class="cls-1" d="M194.91,109c-7.22,7.55-14.66,14.88-22.55,22.54l-25.81,26.27L117.8,186.56a51.18,51.18,0,0,1-12.17,9.81,39,39,0,0,1-56.37-24.91,38.44,38.44,0,0,1,2.59-26,42.14,42.14,0,0,1,9.81-13.19l22.89-23.34,25-24.91c8.79-8.79,17.81-17.58,26.49-26.6a39.88,39.88,0,0,1,33.82-13.3A38.89,38.89,0,0,1,203.7,74a37.22,37.22,0,0,0,1.24,7.66A39.62,39.62,0,0,1,194.79,109M124,0A124,124,0,1,0,248,124,124,124,0,0,0,124,0"/></g></g></svg>