<svg xmlns="http://www.w3.org/2000/svg" viewBox="0 0 284 284"><defs><style>.cls-1{fill:#000;}</style></defs><title>Good Manufacturing</title><g id="Layer_2" data-name="Layer 2"><g id="Layer_1-2" data-name="Layer 1"><path class="cls-1" d="M222,92.56c0-5.55-4.78-6.71-9.81-6.71H206V99.66H212C217.26,99.66,222,98.11,222,92.56Z"/><path class="cls-1" d="M142,0A142,142,0,1,0,284,142,142,142,0,0,0,142,0Zm50,74.49h21.43c12.91,0,22.85,4.64,22.85,17.94s-11,18.46-23.24,18.46h-7V133H192ZM78.62,193.64H51.38A22.22,22.22,0,0,1,27,170.14,23.24,23.24,0,0,1,50,146.73c.53,0,1.07,0,1.6.05A23,23,0,0,1,76,168.29c0,.57.05,1.15,0,1.72a19,19,0,0,1-6.71,14.72h9.3ZM47,103.27A30,30,0,0,1,76.5,72.89c.71,0,1.41,0,2.12,0a33.84,33.84,0,0,1,22.59,7.74L92.3,90.36A17.56,17.56,0,0,0,62,103.27a16.8,16.8,0,0,0,15.12,18.3,17.39,17.39,0,0,0,2.7,0,23.81,23.81,0,0,0,8.91-1.55V109.86H77.45V98.37h24.14v30.72a49.6,49.6,0,0,1-22.59,5,30.09,30.09,0,0,1-32-28.07C47,105.13,47,104.2,47,103.27Zm68,90.37H104.43v-4.52h0a11.1,11.1,0,0,1-9.68,5.42A11.62,11.62,0,0,1,83.06,183a12.39,12.39,0,0,1,.07-1.36V161.49H93.72v17.3c0,3.62.9,6.84,4.78,6.84a6.07,6.07,0,0,0,5.72-6.39c0-.15,0-.3,0-.45v-17.3h10.45Zm35.5,0h-9.68v-3.49h0a10.59,10.59,0,0,1-9,4.26,10.45,10.45,0,0,1-11.56-9.22c0-.28,0-.57-.06-.85,0-9.29,11.23-10.84,20.53-10.84h0c0-3.1-2.58-4.52-5.81-4.52a12.11,12.11,0,0,0-7.87,3.23l-5.43-5.68a20.89,20.89,0,0,1,14.33-5.42c10.72,0,14.72,5.29,14.72,16.91Zm-9.42-60.55L126.38,91.53h0V133H113.47V74.49h20.14l12.91,37.43h0l12.91-37.43h20.26V133H166.14V91.53h0L151,133Zm26.72,60.55H157.1V145h10.72Zm19,0H176.21V161.49h10.58Zm-4.9-36.54a5.81,5.81,0,1,1,0-11.61h0a5.81,5.81,0,1,1,0,11.61Zm32.53,12.27h-7.49v12.91c0,2.84.91,4.39,4,4.39a8.08,8.08,0,0,0,3.1,0v7a19.74,19.74,0,0,1-6.19,1,10.07,10.07,0,0,1-11.38-8.57,9.86,9.86,0,0,1,0-2.92V170.27h-5V162.4h5V154H206.8v8.39h7.49Zm25.82,28.91a13.57,13.57,0,0,1-14.07,10.59,25.88,25.88,0,0,1-5.81-.78l1.16-8.77a17,17,0,0,0,3.49,0c3.22,0,4.26-1.55,5.29-4.26l1-2.59L218.42,161H230l7.23,20.52h0L243.59,161h11.24Z"/><path class="cls-1" d="M51.77,156.72a12.91,12.91,0,1,0,12.9,12.91A12.91,12.91,0,0,0,51.77,156.72Z"/><path class="cls-1" d="M130.25,183.83c0,2.45,2.46,3.35,4.52,3.35a6.05,6.05,0,0,0,6.58-5.5,4.88,4.88,0,0,0,0-1.08v-1h-1.29C134.9,179.57,130.25,180.73,130.25,183.83Z"/></g></g></svg>