<svg xmlns="http://www.w3.org/2000/svg" viewBox="0 0 243.63 245.18"><defs><style>.cls-1{fill:#000;}</style></defs><title>GMO Free</title><g id="Layer_2" data-name="Layer 2"><g id="Layer_1-2" data-name="Layer 1"><path class="cls-1" d="M192,111.36a16,16,0,0,0-16.15,15.85c0,.45,0,.9,0,1.35a16.33,16.33,0,0,0,32.66,0,16.12,16.12,0,0,0-15-17.17c-.41,0-.82,0-1.23,0"/><path class="cls-1" d="M192,158.5a29.18,29.18,0,0,1-30.67-27.6q-.06-1.17,0-2.34a30.81,30.81,0,0,1,61.51,0,29.16,29.16,0,0,1-28.35,30q-1.23,0-2.46,0M152.29,157H138.9V117h0l-14.69,40h-9.59l-14.26-40h0v40H87.52v-56.4h19.37l12.85,36.15h0L132,100.58h19.71ZM76.08,153.6a48.09,48.09,0,0,1-21.77,4.79,29.07,29.07,0,0,1-31-27c-.06-.9-.08-1.79-.06-2.69A29,29,0,0,1,51.53,99c.82,0,1.63,0,2.45,0a32.62,32.62,0,0,1,21.78,7.51l-8.71,9.8a16.88,16.88,0,0,0-29.18,12.3,16.33,16.33,0,0,0,14.71,17.81,15.91,15.91,0,0,0,2.49,0A22.78,22.78,0,0,0,63.56,145V134.33H52.68V123.44H76ZM227.63,66.5,190.18,91.43A37.36,37.36,0,0,0,160,106.89V93.18l59.67-39.74A119.89,119.89,0,1,0,20.12,186.37l31-20.58H55a55.25,55.25,0,0,0,25.26-5.66v4.25h0L29.38,199A119.76,119.76,0,0,0,228.07,66.39"/></g></g></svg>