<svg xmlns="http://www.w3.org/2000/svg" viewBox="0 0 15.8 15.8"><defs><style>.cls-1{fill:#000;}</style></defs><title>VEGAN TT</title><g id="Layer_2" data-name="Layer 2"><g id="Layer_1-2" data-name="Layer 1"><g id="Layer_1-2-2" data-name="Layer 1-2"><g id="Layer_1-2-2-2" data-name="Layer 1-2-2"><path class="cls-1" d="M7.9,0a7.9,7.9,0,1,0,7.9,7.9h0A7.89,7.89,0,0,0,7.91,0ZM6.57,10.51l-2.93-3,2.7,3.26a2,2,0,0,1-2.44-.53A4.38,4.38,0,0,1,3.16,7,5.13,5.13,0,0,1,6.3,8,1.88,1.88,0,0,1,6.57,10.51ZM12.08,9.3c-.93,1.34-2.46,2-3.6,1.45L12,4.67,8.08,10.5a2.93,2.93,0,0,1-.26-3.87c1-1.61,4.37-2.56,4.52-2.47S13.28,7.54,12.08,9.3Z"/></g></g></g></g></svg>