<svg xmlns="http://www.w3.org/2000/svg" viewBox="0 0 253.24 253.09"><defs><style>.cls-1{fill:#000;}</style></defs><title>Gluten Free</title><g id="Layer_2" data-name="Layer 2"><g id="Layer_1-2" data-name="Layer 1"><path class="cls-1" d="M172.92,142.67a49.93,49.93,0,0,1-33.59,11.5h0a9.08,9.08,0,0,1-9.32-8.84c0-.24,0-.47,0-.71A51,51,0,0,1,141.52,111a49.81,49.81,0,0,1,33.59-11.5h0a9,9,0,0,1,9.22,8.72c0,.28,0,.55,0,.83a49.83,49.83,0,0,1-11.5,33.59m0,58.32a50.17,50.17,0,0,1-33.59,11.5h0a9.08,9.08,0,0,1-9.33-8.84c0-.23,0-.47,0-.7a51,51,0,0,1,11.5-33.59A49.84,49.84,0,0,1,175,157.85h0a9,9,0,0,1,9.22,8.72c0,.28,0,.55,0,.83A49.82,49.82,0,0,1,172.69,201M125.41,103.9a9.62,9.62,0,0,1-6.78-3,50.47,50.47,0,0,1-15.3-32.21,50.44,50.44,0,0,1,15.3-32.09,9.2,9.2,0,0,1,13-.58c.2.19.39.38.57.58A50.49,50.49,0,0,1,147.5,68.7a50.48,50.48,0,0,1-15.65,32.21,9.62,9.62,0,0,1-6.78,3M112,154.52h0A50.4,50.4,0,0,1,78.36,143a50.39,50.39,0,0,1-11.5-33.59,9,9,0,0,1,8.38-9.53,7.48,7.48,0,0,1,.82,0h0a49.76,49.76,0,0,1,33.59,11.5A50.4,50.4,0,0,1,121.16,145a9.1,9.1,0,0,1-8.62,9.54h-.7m0,58.32h0a50.39,50.39,0,0,1-33.59-11.5,50.39,50.39,0,0,1-11.5-33.59,9.08,9.08,0,0,1,8.61-9.54,5.81,5.81,0,0,1,.59,0h0a49.83,49.83,0,0,1,33.59,11.5A50.39,50.39,0,0,1,121,203.29a9.09,9.09,0,0,1-8.61,9.54h-.71M240.45,71.12,192,103.33a17.59,17.59,0,0,0-3.91-6.79,16.73,16.73,0,0,0-8.4-4.6l52.68-35.43A126.83,126.83,0,0,0,21.31,197.19h0l37-24.61A65.43,65.43,0,0,0,62,189.72L31.54,210A126.54,126.54,0,0,0,240.45,71.12"/></g></g></svg>