<svg xmlns="http://www.w3.org/2000/svg" width="31.442" height="23.581" viewBox="0 0 31.442 23.581"><defs><style>.a{fill:#ea7d6f;fill-rule:evenodd;}</style></defs><path class="a" d="M491.93,510.651h-2.62a1.31,1.31,0,0,1-1.31-1.31v-2.62h19.651V494.93h6.114a2.726,2.726,0,0,1,2.536,1.45c.778,1.232,2.012,3.186,2.763,4.426a2.628,2.628,0,0,1,.378,1.356v5.869a2.479,2.479,0,0,1-2.62,2.62h-1.31a3.93,3.93,0,1,1-7.861,0h-7.86a3.93,3.93,0,1,1-7.861,0Zm3.93-1.572a1.572,1.572,0,1,1-1.572,1.572,1.573,1.573,0,0,1,1.572-1.572Zm15.721,0a1.572,1.572,0,1,1-1.572,1.572,1.573,1.573,0,0,1,1.572-1.572Zm-5.24-3.668H488v-13.1a1.311,1.311,0,0,1,1.31-1.31h15.721a1.311,1.311,0,0,1,1.31,1.31v13.1Zm3.93-7.861v3.93h6.177l-1.869-3.27a1.309,1.309,0,0,0-1.137-.66Z" transform="translate(-488 -491)"/></svg>