<svg xmlns="http://www.w3.org/2000/svg" width="17.365" height="17.365" viewBox="0 0 17.365 17.365"><defs><style>.a{fill:#eb9185;}</style></defs><path class="a" d="M8.683,1.565c2.318,0,2.593.009,3.509.05,2.353.107,3.451,1.224,3.559,3.559.041.916.05,1.19.05,3.508s-.009,2.593-.05,3.508c-.108,2.333-1.2,3.452-3.559,3.56-.916.041-1.19.05-3.509.05s-2.593-.009-3.508-.05c-2.359-.109-3.452-1.229-3.559-3.56-.041-.915-.051-1.19-.051-3.508s.009-2.592.051-3.508c.108-2.335,1.2-3.452,3.559-3.559C6.09,1.574,6.364,1.565,8.683,1.565ZM8.683,0C6.325,0,6.029.01,5.1.052,1.949.2.2,1.946.052,5.1.01,6.029,0,6.325,0,8.683s.01,2.654.052,3.58C.2,15.417,1.946,17.168,5.1,17.313c.926.042,1.221.052,3.579.052s2.654-.01,3.58-.052c3.15-.145,4.907-1.894,5.05-5.05.042-.926.052-1.221.052-3.58s-.01-2.653-.052-3.579C17.171,1.953,15.419.2,12.263.052,11.337.01,11.041,0,8.683,0Zm0,4.224a4.459,4.459,0,1,0,4.459,4.459A4.459,4.459,0,0,0,8.683,4.224Zm0,7.353a2.894,2.894,0,1,1,2.894-2.894A2.894,2.894,0,0,1,8.683,11.577Zm4.635-8.57A1.042,1.042,0,1,0,14.36,4.048,1.041,1.041,0,0,0,13.318,3.006Z"/></svg>