<svg xmlns="http://www.w3.org/2000/svg" viewBox="0 0 161.57 32.17"><defs><style>.cls-1{fill:#fff;}</style></defs><title>Asset 1</title><g id="Layer_2" data-name="Layer 2"><g id="Layer_1-2" data-name="Layer 1"><path class="cls-1" d="M136.33,7.5a7.55,7.55,0,0,0-7.83,8,7.83,7.83,0,1,0,15.66,0,7.56,7.56,0,0,0-7.83-7.95m0,12.11c-2.19,0-3.52-2.16-3.52-4.16s1.33-4.19,3.52-4.19,3.52,2.13,3.52,4.19-1.34,4.16-3.52,4.16"/><polygon class="cls-1" points="160.57 7.98 155.35 7.98 152.98 11.84 150.22 7.98 145.06 7.98 150.19 14.78 143.82 22.89 149.1 22.89 152.53 17.7 156.35 22.89 161.57 22.89 155.29 14.78 160.57 7.98"/><polygon class="cls-1" points="130.48 0 114.86 0 114.86 3.89 120.44 3.89 120.44 22.89 124.9 22.89 124.9 3.89 130.48 3.89 130.48 0"/><path class="cls-1" d="M3,3.75A8.74,8.74,0,0,1,9.59.63h1.3L4.66,22.79H2l-.17.6H12.36l.14-.6H9.59L15.86.63h1.33a6.08,6.08,0,0,1,3.46.84,4.85,4.85,0,0,1,1.93,3.75,11.92,11.92,0,0,1-.28,2.17l-.21.84h.66l2-8.19H2.31L0,8.23H.63A11.57,11.57,0,0,1,3,3.75"/><path class="cls-1" d="M112.66,8.58c-1.19,0-2.21.88-3.54,3.12l-5,8.33L103,12a7,7,0,0,0-.67-2.45,2.07,2.07,0,0,0-1.61-.95c-1.61,0-3.82,1.75-4.87,3.89-.35.63-.52,1-.59,1.15l.52.18c1-1.93,1.54-2.66,2.17-2.66s.84.42,1.12,2.48l1.61,12L99.91,27c-1.47,2.69-3.6,4.48-5.35,4.48a.74.74,0,0,1-.67-.25,1.65,1.65,0,0,0,1.37-1.78,2.07,2.07,0,0,0-2-2.1,2.36,2.36,0,0,0-2.31,2.45c0,1.36,1.29,2.41,3,2.41,2.52,0,4.41-1.47,6.75-5.39l9.18-15.08c.7-1.12.84-1.3,1.26-1.4a2.14,2.14,0,0,0-.32,1.12,1.84,1.84,0,0,0,1.89,1.78,2.26,2.26,0,0,0,2.17-2.41,2.15,2.15,0,0,0-2.2-2.21"/><path class="cls-1" d="M34.44,23.7c1.68,0,3.15-1.08,4.66-3.43l-.46-.38-.1.17c-1.33,1.86-2.1,2.59-2.7,2.59a.59.59,0,0,1-.52-.63,6.59,6.59,0,0,1,.38-1.75L38.85,9.14h-4.2l-2,7a10,10,0,0,1-1.92,3.67c-1.41,1.82-2.88,2.94-3.93,2.94A.77.77,0,0,1,26,22a13,13,0,0,1,.63-2.62L29.78,8.16c-.87.81-1.54,1-3.46,1H23.24l-.18.6h2l-2.41,8.57a10.23,10.23,0,0,0-.42,2.28c0,2,1.22,3.11,3.43,3.11A5.62,5.62,0,0,0,29.54,22a11,11,0,0,0,2.24-2.66,8.88,8.88,0,0,0-.25,1.78,2.64,2.64,0,0,0,2.91,2.59"/><path class="cls-1" d="M62.5,10a4.1,4.1,0,0,1-.17,1l-2.28,6.61a13.64,13.64,0,0,0-.8,3.4,2.56,2.56,0,0,0,.63,1.89,2.86,2.86,0,0,0,2.26.79,5.11,5.11,0,0,0,2.41-.67A9.05,9.05,0,0,0,66,22a11.57,11.57,0,0,0,1.77-1.93l-.94,3.34h4.3l2.73-9.6a11.81,11.81,0,0,1,2.84-3.32A3.83,3.83,0,0,1,79,9.35c.56,0,.81.24.81.7a3.4,3.4,0,0,1-.14.94l-3.5,12.4h4.2l2.41-8.55A11,11,0,0,1,85,11.69c1.5-1.5,2.87-2.38,3.78-2.38.49,0,.73.25.73.67a4.1,4.1,0,0,1-.17,1L87,17.64a11.31,11.31,0,0,0-.8,3.4A2.58,2.58,0,0,0,89,23.7a4.89,4.89,0,0,0,3-1.16,10.88,10.88,0,0,0,2-2.27l-.46-.35c-1.33,1.92-2.2,2.69-3,2.69-.31,0-.52-.21-.52-.59a6.71,6.71,0,0,1,.45-1.75l2.21-6.62a7.56,7.56,0,0,0,.42-2.1c0-1.85-1.3-3-3.36-3s-4.1,1.3-6.34,4.1a6.14,6.14,0,0,0,.14-1.19c0-1.93-1-2.87-3.18-2.87s-4.31,1.29-6.1,3.71l1.16-4.13c-.84.8-1.4,1-3,1H68.88l-.18.59h2l-2.39,8.46a15.31,15.31,0,0,1-1.07,1.59c-1.22,1.6-2.76,2.9-3.51,2.89A.64.64,0,0,1,63.1,22a6.71,6.71,0,0,1,.45-1.75l2.21-6.62a7.56,7.56,0,0,0,.42-2.1c0-1.85-1.3-3-3.36-3s-4.1,1.3-6.34,4.1a6.14,6.14,0,0,0,.14-1.19c0-1.93-1-2.87-3.18-2.87s-4.31,1.29-6.09,3.71L48.5,8.16c-.84.8-1.4,1-3,1h-3.6l-.18.59h2L39.89,23.39H44.2l2.73-9.6a11.72,11.72,0,0,1,2.83-3.32,3.83,3.83,0,0,1,2.31-1.12c.56,0,.81.24.81.7a3.4,3.4,0,0,1-.14.94l-3.5,12.4h4.2l2.41-8.55A11,11,0,0,1,58,11.69c1.5-1.5,2.87-2.38,3.78-2.38.49,0,.73.25.73.67"/></g></g></svg>