<svg xmlns="http://www.w3.org/2000/svg" xmlns:xlink="http://www.w3.org/1999/xlink" viewBox="0 0 30.55 30.55"><defs><style>.cls-1{mask:url(#mask);filter:url(#luminosity-noclip-2);}.cls-2{mix-blend-mode:darken;fill:url(#Áåçûìÿííûé_ãðàäèåíò_47);}.cls-3{isolation:isolate;}.cls-4{fill:#fff;}.cls-5{fill:#036;}.cls-6{fill:#cf142b;}.cls-7{mask:url(#mask-2);}.cls-8{opacity:0.75;mix-blend-mode:color-burn;fill:url(#Áåçûìÿííûé_ãðàäèåíò_210);}.cls-9{filter:url(#luminosity-noclip);}</style><filter id="luminosity-noclip" x="0" y="-8133.63" width="30.55" height="32766" filterUnits="userSpaceOnUse" color-interpolation-filters="sRGB"><feFlood flood-color="#fff" result="bg"/><feBlend in="SourceGraphic" in2="bg"/></filter><mask id="mask" x="0" y="-8133.63" width="30.55" height="32766" maskUnits="userSpaceOnUse"><g class="cls-9"/></mask><radialGradient id="Áåçûìÿííûé_ãðàäèåíò_47" cx="-556.03" cy="-282.85" r="18.2" gradientTransform="translate(482.01 252.7) scale(0.84)" gradientUnits="userSpaceOnUse"><stop offset="0"/><stop offset="1" stop-color="#333"/></radialGradient><filter id="luminosity-noclip-2" x="0" y="0" width="30.55" height="30.55" filterUnits="userSpaceOnUse" color-interpolation-filters="sRGB"><feFlood flood-color="#fff" result="bg"/><feBlend in="SourceGraphic" in2="bg"/></filter><mask id="mask-2" x="0" y="0" width="30.55" height="30.55" maskUnits="userSpaceOnUse"><g class="cls-1"><circle class="cls-2" cx="15.27" cy="15.28" r="15.28"/></g></mask><radialGradient id="Áåçûìÿííûé_ãðàäèåíò_210" cx="-556.03" cy="-282.85" r="18.2" gradientTransform="translate(482.01 252.7) scale(0.84)" gradientUnits="userSpaceOnUse"><stop offset="0" stop-color="#fff"/><stop offset="1" stop-color="#231f20"/></radialGradient></defs><title>UK</title><g class="cls-3"><g id="Layer_2" data-name="Layer 2"><g id="Ñëîé_1" data-name="Ñëîé 1"><path class="cls-4" d="M23.07,10.18h-3.5l7.37-4.77c-.21-.25-.42-.49-.65-.72l-7.1,4.63V.51A14.13,14.13,0,0,0,17.62.18v12H30.24a14.68,14.68,0,0,0-.56-2H28.32l1.09-.71a15.3,15.3,0,0,0-1.33-2.53l-5,3.24Z"/><path class="cls-4" d="M11.36,9.32,4.26,4.69A14.54,14.54,0,0,0,2.47,6.93l5,3.25H4L1.53,8.6q-.21.44-.39.87l1.09.71H.87a14.68,14.68,0,0,0-.56,2H12.92V.18a14.45,14.45,0,0,0-1.56.33Z"/><path class="cls-5" d="M11.36.51a15.14,15.14,0,0,0-6.89,4l-.21.22,7.1,4.63Z"/><path class="cls-6" d="M7.48,10.18l-5-3.25A16.18,16.18,0,0,0,1.53,8.6L4,10.18Z"/><path class="cls-5" d="M1.14,9.47c-.1.24-.19.48-.27.71H2.23Z"/><path class="cls-5" d="M26.29,4.69l-.21-.22a15.14,15.14,0,0,0-6.89-4V9.32Z"/><path class="cls-6" d="M19.57,10.18H23.1l5-3.24a13.8,13.8,0,0,0-1.14-1.53Z"/><path class="cls-5" d="M29.68,10.18c-.08-.23-.17-.47-.27-.71l-1.09.71Z"/><path class="cls-6" d="M17.62,20.37v-2H30.24a15.33,15.33,0,0,0,0-6.11H17.62V.18A15.3,15.3,0,0,0,15.27,0a15.5,15.5,0,0,0-2.35.18v12H.31a15.33,15.33,0,0,0,0,6.11H12.92v12a15.5,15.5,0,0,0,2.35.18,15.3,15.3,0,0,0,2.35-.18Z"/><path class="cls-4" d="M19.19,18.33H17.62v12A14.13,14.13,0,0,0,19.19,30V21.23l7.1,4.63a14.61,14.61,0,0,0,1.79-2.25l-5-3.24H26.6L29,22q.21-.43.39-.87l-1.09-.71h1.36a14.68,14.68,0,0,0,.56-2h-11Z"/><path class="cls-4" d="M2.23,20.37l-1.09.71a14,14,0,0,0,1.32,2.51l5-3.22h3.53L3.6,25.13c.21.25.43.49.66.73l7.1-4.63V30a14.45,14.45,0,0,0,1.56.33v-12H.31a14.68,14.68,0,0,0,.56,2Z"/><path class="cls-5" d="M4.26,25.86l.21.22a15.14,15.14,0,0,0,6.89,4V21.23Z"/><path class="cls-6" d="M10.92,20.37H7.41L2.46,23.59A13.91,13.91,0,0,0,3.6,25.13l7.34-4.76Z"/><path class="cls-5" d="M.87,20.37c.08.24.17.47.27.71l1.09-.71Z"/><path class="cls-5" d="M19.19,22.61V30a15.14,15.14,0,0,0,6.89-4l.21-.22-7.1-4.63Z"/><path class="cls-6" d="M26.57,20.37h-3.5l5,3.24A16,16,0,0,0,29,22L26.6,20.37Z"/><path class="cls-5" d="M29.41,21.08c.1-.24.19-.47.27-.71H28.32Z"/><g class="cls-7"><circle class="cls-8" cx="15.27" cy="15.28" r="15.28"/></g></g></g></g></svg>